# xmcd
#
# Track frame offsets: 
#        150
#        20955
#        45519
#        75222
#        96587
#        117188
#        138053
#        154717
#        170862
#        187916
#        215962
#        243239
#        276337
#        306820
#
# Disc length: 4110 seconds
#
# Revision: 0
# Processed by: cddbd v1.5.2PL0 Copyright (c) Steve Scherf et al.
# Submitted via: ExactAudioCopy v0.99pb3
#
DISCID=c1100c0e
DTITLE=Blue House Band - Who's In The House
DYEAR=2007
DGENRE=Blues
TTITLE0=Dynomite
TTITLE1=Maybe Someday
TTITLE2=Age Old Secret
TTITLE3=Bang Bang Bang
TTITLE4=Jumpin'
TTITLE5=See About Me
TTITLE6=I-95
TTITLE7=Real Fine Lady
TTITLE8=Gimme The News
TTITLE9=Won't Forget My Spoons
TTITLE10=Gotta Love Someboby
TTITLE11=Baby Baby
TTITLE12=Bluesman Tim
TTITLE13=Unknown Title
EXTD=
EXTT0=
EXTT1=
EXTT2=
EXTT3=
EXTT4=
EXTT5=
EXTT6=
EXTT7=
EXTT8=
EXTT9=
EXTT10=
EXTT11=
EXTT12=
EXTT13=
PLAYORDER=
